# xmcd CD database file
#
# Track frame offsets:
#	150
#	4890
#	25137
#	40593
#	46185
#	59205
#	77401
#	98245
#	102794
#	115456
#	122636
#	126098
#	150584
#	178423
#	194731
#	206304
#	220909
#	226208
#	240407
#	249524
#	256635
#	259433
#	272851
#	290217
#	301453
#	310162
#
# Disc length: 4375 seconds
#
# Revision: 1
# Processed by: cddbd v1.4PL0 Copyright (c) Steve Scherf et al.
# Submitted via: CDex 1.50Beta7
#
DISCID=7511151a
DTITLE=Duke Ellington - The Treasury Shows Volume 5 Disk 1/2
DYEAR=1900
DGENRE=Jazz
TTITLE0=(Opening Theme) Take The "A" Train
TTITLE1=Mood To Be Wooed
TTITLE2=Jack The Bear
TTITLE3=Ellington Bond Promo
TTITLE4=The More I See You
TTITLE5=Way Low
TTITLE6=Blues On The Double
TTITLE7=Ellington Bond Promo
TTITLE8=Summertime
TTITLE9=(Theme) Take The "A" Train Into station break
TTITLE10=(Theme) Take The "A" Train amd brpadcast retun
TTITLE11=Experts from Black Brown and Beige (a) COME SUNDAY
TTITLE12=Experts from Black Brown and Beige (b) Light (The Work Song)
TTITLE13=I'm Beginning To See The Light-Ellington Bond Promo
TTITLE14=On The Alamo
TTITLE15=Carnegie Blues
TTITLE16=Ellington Bond Promo
TTITLE17=Riff Stacatto
TTITLE18=Blue Skies
TTITLE19=(Closing Theme) Things Ain't What They Used To Be
TTITLE20=(Opening Theme) Take The "A" Train
TTITLE21=As Long As I Live
TTITLE22=Nine-Twenty Special
TTITLE23=The Wonder Of You
TTITLE24=Walkin'With My Honey
TTITLE25=Three Cent Stomp
EXTD=
EXTT0=
EXTT1=
EXTT2=
EXTT3=
EXTT4=
EXTT5=
EXTT6=
EXTT7=
EXTT8=
EXTT9=
EXTT10=
EXTT11=
EXTT12=
EXTT13=
EXTT14=
EXTT15=
EXTT16=
EXTT17=
EXTT18=
EXTT19=
EXTT20=
EXTT21=
EXTT22=
EXTT23=
EXTT24=
EXTT25=
PLAYORDER=
